<svg width="28" height="28" viewBox="0 0 28 28" fill="none" xmlns="http://www.w3.org/2000/svg">
<path d="M28 20C28 24.4219 24.4219 28 20 28C17.5938 28 15.4688 26.9219 14 25.2425C12.5312 26.9219 10.4062 28 8 28C3.57812 28 0 24.4219 0 20C0 17.5938 1.07812 15.4688 2.75812 14C1.07812 12.5312 0 10.4062 0 8C0 3.57812 3.57812 0 8 0C10.4062 0 12.5312 1.07812 14 2.75813C15.4688 1.075 17.5938 0 20 0C24.4219 0 28 3.57812 28 8C28 10.4062 26.9219 12.5312 25.2419 14C26.925 15.4688 28 17.5938 28 20ZM27 8C27 4.14 23.86 1 20 1C17.9788 1 16.115 1.85813 14.7525 3.41625L14 4.275L13.2475 3.41375C11.8875 1.85625 10.0188 1 8 1C4.14 1 1 4.14 1 8C1 10.0212 1.85813 11.885 3.41625 13.2475L4.275 14L3.41625 14.8062C1.85813 16.1125 1 17.9812 1 20C1 23.86 4.14 27 8 27C10.0212 27 11.885 26.1419 13.2475 24.5837L14 23.725L14.7525 24.5862C16.1125 26.1419 17.9813 27 20 27C23.86 27 27 23.86 27 20C27 17.9788 26.1419 16.115 24.5837 14.7525L23.725 14L24.5863 13.2475C26.1438 11.8875 27 10.0187 27 8ZM14 19C11.2437 19 9 16.7563 9 14C9 11.2437 11.2425 9 14 9C16.7575 9 19 11.2425 19 14C19 16.7575 16.7563 19 14 19ZM14 10C11.7944 10 10 11.7944 10 14C10 16.2056 11.7944 18 14 18C16.2056 18 18 16.2056 18 14C18 11.7944 16.2062 10 14 10Z" fill="black"/>
</svg>
