<?xml version="1.0" encoding="utf-8"?>
<!-- Generator: Adobe Illustrator 26.0.1, SVG Export Plug-In . SVG Version: 6.00 Build 0)  -->
<svg version="1.1" id="Layer_1" xmlns="http://www.w3.org/2000/svg" xmlns:xlink="http://www.w3.org/1999/xlink" x="0px" y="0px"
	 viewBox="0 0 385.1 201.9" style="enable-background:new 0 0 385.1 201.9;" xml:space="preserve">
<style type="text/css">
	.st0{fill:#FFFFFF;}
</style>
<g>
	<path class="st0" d="M60.6,101L99,67.7c1.1-0.9,0.4-2.7-1-2.7H81.8c-1.6,0-3.2,0.6-4.4,1.6L51.1,89.2V67.5c0-1.4-1.1-2.5-2.5-2.5
		H38.4c-1.4,0-2.5,1.1-2.5,2.5v67c0,1.4,1.1,2.5,2.5,2.5h10.2c1.4,0,2.5-1.1,2.5-2.5v-21.7l26.3,22.6c1.2,1.1,2.8,1.6,4.4,1.6H98
		c1.4,0,2.1-1.7,1-2.7L60.6,101z"/>
	<path class="st0" d="M149.7,121.7H132V67.5c0-1.4-1.1-2.5-2.5-2.5h-10.2c-1.4,0-2.5,1.1-2.5,2.5v56.7v10.2c0,1.4,1.1,2.5,2.5,2.5
		h10.2h20.2c1.4,0,2.5-1.1,2.5-2.5v-10.2C152.2,122.8,151.1,121.7,149.7,121.7z"/>
	<path class="st0" d="M225.3,80.2c1.4,0,2.5-1.1,2.5-2.5V67.5c0-1.4-1.1-2.5-2.5-2.5h-50.6c-1.4,0-2.5,1.1-2.5,2.5v0v10.2v18.1v10.2
		v18.1v10.2v0c0,1.4,1.1,2.5,2.5,2.5H185c0,0,0,0,0,0h40.3c1.4,0,2.5-1.1,2.5-2.5v-10.2c0-1.4-1.1-2.5-2.5-2.5h-37.9v-13.2h22.8
		c1.4,0,2.5-1.1,2.5-2.5V95.8c0-1.4-1.1-2.5-2.5-2.5h-22.8V80.2H225.3z"/>
	<path class="st0" d="M346.7,65h-10.2c0,0,0,0,0,0h-78.1c0,0,0,0,0,0H248c-1.4,0-2.5,1.1-2.5,2.5v0v10.2v46.5v10.2v0
		c0,1.4,1.1,2.5,2.5,2.5h98.6c1.4,0,2.5-1.1,2.5-2.5v0v-10.2V77.7V67.5v0C349.1,66.1,348,65,346.7,65z M260.7,80.2H334v41.6h-73.2
		V80.2z"/>
</g>
</svg>
