<svg width="185" height="50" viewBox="0 0 185 50" fill="none" xmlns="http://www.w3.org/2000/svg">
<path d="M0 12.9149V37.1096C0 37.7636 0.807774 38.1482 1.30782 37.6866L15.54 25.0315L1.30782 12.3764C0.807774 11.8763 0 12.2225 0 12.9149Z" fill="url(#paint0_linear_20000836_3496)"/>
<path d="M43.0044 0.567481L15.54 24.993L43.0428 49.4571C44.4276 50.688 46.6586 49.6879 46.6586 47.8415V2.18303C46.6201 0.298223 44.3891 -0.701879 43.0044 0.567481Z" fill="url(#paint1_linear_20000836_3496)"/>
<path d="M73.5845 24.993L88.3552 12.184C88.7783 11.8379 88.509 11.1455 87.9705 11.1455H81.7391C81.1237 11.1455 80.5082 11.3763 80.0467 11.7609L69.9302 20.4541V12.1071C69.9302 11.5686 69.5071 11.1455 68.9686 11.1455H65.0451C64.5066 11.1455 64.0835 11.5686 64.0835 12.1071V37.879C64.0835 38.4175 64.5066 38.8406 65.0451 38.8406H68.9686C69.5071 38.8406 69.9302 38.4175 69.9302 37.879V29.532L80.0467 38.2251C80.5082 38.6483 81.1237 38.8406 81.7391 38.8406H87.9705C88.509 38.8406 88.7783 38.1867 88.3552 37.802L73.5845 24.993Z" fill="white"/>
<path d="M107.896 32.9938H101.087V12.1071C101.087 11.5686 100.664 11.1455 100.126 11.1455H96.1638C95.6253 11.1455 95.2021 11.5686 95.2021 12.1071V33.917V37.8405C95.2021 38.379 95.6253 38.8021 96.1638 38.8021H100.087H107.857C108.396 38.8021 108.819 38.379 108.819 37.8405V33.9555C108.819 33.417 108.396 32.9938 107.896 32.9938Z" fill="white"/>
<path d="M136.975 16.9922C137.514 16.9922 137.937 16.5691 137.937 16.0306V12.1071C137.937 11.5686 137.514 11.1455 136.975 11.1455H117.512C116.973 11.1455 116.55 11.5686 116.55 12.1071V16.0306V22.9928V26.9163V33.8786V37.802C116.55 38.3405 116.973 38.7637 117.512 38.7637H121.435H136.937C137.475 38.7637 137.899 38.3405 137.899 37.802V33.9555C137.899 33.417 137.475 32.9938 136.937 32.9938H122.359V27.9164H131.167C131.706 27.9164 132.129 27.4933 132.129 26.9548V23.0313C132.129 22.4928 131.706 22.0697 131.167 22.0697H122.397V16.9922H136.975Z" fill="white"/>
<path d="M183.634 11.184H179.711H149.631H145.707C145.169 11.184 144.746 11.6071 144.746 12.1456V16.0691V33.9555V37.879C144.746 38.4175 145.169 38.8406 145.707 38.8406H183.634C184.173 38.8406 184.596 38.4175 184.596 37.879V33.9555V16.0691V12.1071C184.596 11.6071 184.173 11.184 183.634 11.184ZM150.592 16.9922H178.749V32.9939H150.592V16.9922Z" fill="white"/>
<defs>
<linearGradient id="paint0_linear_20000836_3496" x1="0" y1="25.0011" x2="15.5313" y2="25.0011" gradientUnits="userSpaceOnUse">
<stop stop-color="white"/>
<stop offset="0.9104" stop-color="white" stop-opacity="0.0896271"/>
<stop offset="1" stop-color="white" stop-opacity="0"/>
</linearGradient>
<linearGradient id="paint1_linear_20000836_3496" x1="46.8394" y1="25.0009" x2="15.7531" y2="25.0009" gradientUnits="userSpaceOnUse">
<stop stop-color="white"/>
<stop offset="0.9104" stop-color="white" stop-opacity="0.0896271"/>
<stop offset="1" stop-color="white" stop-opacity="0"/>
</linearGradient>
</defs>
</svg>
